<?xml version="1.0" encoding="UTF-8" standalone="no"?>
<svg xmlns="http://www.w3.org/2000/svg" width="1047" height="1047" viewBox="-19.100000000000023 -21.600000000000023 1047.2 1047.2" version="1.1">
  <defs>
    <style type="text/css"><![CDATA[ .black{fill:#000;stroke:none} .white{fill:#fff;stroke:none} ]]></style>
  </defs>
  <circle class="white" cx="504.50" cy="502.00" r="523.60"/>
  <path class="black" d="M 399.00 813.00 L 398.00 816.00 L 399.00 821.00 L 401.00 823.00 L 412.00 828.00 L 412.00 833.00 L 403.00 849.00 L 398.00 865.00 L 398.00 870.00 L 397.00 871.00 L 397.00 895.00 L 402.00 913.00 L 411.00 929.00 L 424.00 943.00 L 439.00 954.00 L 439.00 958.00 L 435.00 966.00 L 435.00 973.00 L 438.00 977.00 L 445.00 978.00 L 449.00 976.00 L 461.00 965.00 L 487.00 972.00 L 507.00 973.00 L 508.00 974.00 L 536.00 972.00 L 563.00 965.00 L 579.00 978.00 L 584.00 978.00 L 588.00 975.00 L 589.00 966.00 L 587.00 963.00 L 585.00 954.00 L 605.00 938.00 L 612.00 930.00 L 622.00 913.00 L 627.00 895.00 L 627.00 870.00 L 626.00 869.00 L 626.00 864.00 L 620.00 846.00 L 612.00 832.00 L 612.00 828.00 L 614.00 826.00 L 620.00 825.00 L 626.00 819.00 L 626.00 815.00 L 622.00 810.00 L 617.00 808.00 L 407.00 808.00 L 402.00 810.00 Z M 761.00 723.00 L 761.00 763.00 L 769.00 763.00 L 769.00 749.00 L 770.00 748.00 L 772.00 748.00 L 773.00 749.00 L 773.00 751.00 L 775.00 754.00 L 775.00 756.00 L 777.00 759.00 L 777.00 761.00 L 779.00 763.00 L 783.00 763.00 L 785.00 759.00 L 785.00 757.00 L 789.00 749.00 L 791.00 749.00 L 792.00 750.00 L 792.00 762.00 L 793.00 763.00 L 801.00 763.00 L 801.00 723.00 L 791.00 723.00 L 790.00 724.00 L 789.00 729.00 L 787.00 732.00 L 787.00 734.00 L 785.00 737.00 L 785.00 739.00 L 782.00 745.00 L 780.00 745.00 L 779.00 744.00 L 778.00 739.00 L 776.00 736.00 L 776.00 734.00 L 774.00 731.00 L 774.00 729.00 L 772.00 726.00 L 772.00 724.00 L 771.00 723.00 Z M 621.00 723.00 L 621.00 763.00 L 630.00 763.00 L 630.00 749.00 L 631.00 748.00 L 636.00 748.00 L 637.00 749.00 L 644.00 763.00 L 654.00 763.00 L 647.00 749.00 L 647.00 747.00 L 651.00 743.00 L 652.00 741.00 L 652.00 737.00 L 653.00 736.00 L 652.00 735.00 L 652.00 730.00 L 651.00 728.00 L 648.00 725.00 L 644.00 724.00 L 643.00 723.00 Z M 586.00 724.00 L 584.00 724.00 L 583.00 723.00 L 562.00 723.00 L 562.00 763.00 L 570.00 763.00 L 571.00 762.00 L 571.00 750.00 L 572.00 749.00 L 583.00 749.00 L 584.00 748.00 L 587.00 748.00 L 589.00 746.00 L 590.00 746.00 L 590.00 745.00 L 592.00 743.00 L 593.00 741.00 L 593.00 737.00 L 594.00 736.00 L 593.00 735.00 L 593.00 731.00 L 591.00 727.00 Z M 526.00 723.00 L 525.00 727.00 L 524.00 728.00 L 524.00 730.00 L 522.00 733.00 L 522.00 735.00 L 521.00 736.00 L 521.00 738.00 L 520.00 739.00 L 520.00 741.00 L 519.00 742.00 L 519.00 744.00 L 518.00 745.00 L 518.00 747.00 L 517.00 748.00 L 515.00 756.00 L 513.00 759.00 L 512.00 763.00 L 521.00 763.00 L 523.00 761.00 L 523.00 758.00 L 525.00 755.00 L 538.00 755.00 L 539.00 756.00 L 539.00 758.00 L 540.00 759.00 L 541.00 763.00 L 551.00 763.00 L 550.00 759.00 L 549.00 758.00 L 549.00 756.00 L 548.00 755.00 L 548.00 753.00 L 547.00 752.00 L 547.00 750.00 L 546.00 749.00 L 546.00 747.00 L 544.00 744.00 L 544.00 742.00 L 543.00 741.00 L 542.00 736.00 L 540.00 733.00 L 540.00 731.00 L 539.00 730.00 L 539.00 728.00 L 538.00 727.00 L 537.00 723.00 Z M 476.00 723.00 L 476.00 730.00 L 487.00 730.00 L 488.00 731.00 L 488.00 762.00 L 489.00 763.00 L 497.00 763.00 L 497.00 731.00 L 498.00 730.00 L 509.00 730.00 L 510.00 729.00 L 510.00 724.00 L 509.00 723.00 Z M 362.00 723.00 L 362.00 762.00 L 363.00 763.00 L 390.00 763.00 L 391.00 762.00 L 390.00 761.00 L 390.00 758.00 L 391.00 757.00 L 390.00 756.00 L 373.00 756.00 L 371.00 754.00 L 371.00 748.00 L 373.00 746.00 L 386.00 746.00 L 387.00 745.00 L 386.00 744.00 L 386.00 742.00 L 387.00 741.00 L 386.00 739.00 L 373.00 739.00 L 372.00 738.00 L 372.00 731.00 L 373.00 730.00 L 389.00 730.00 L 390.00 729.00 L 390.00 723.00 Z M 351.00 723.00 L 324.00 723.00 L 324.00 762.00 L 325.00 763.00 L 333.00 763.00 L 333.00 748.00 L 334.00 747.00 L 349.00 747.00 L 349.00 741.00 L 335.00 741.00 L 333.00 739.00 L 333.00 731.00 L 334.00 730.00 L 351.00 730.00 L 352.00 729.00 L 352.00 724.00 Z M 289.00 723.00 L 287.00 727.00 L 287.00 729.00 L 286.00 730.00 L 286.00 732.00 L 285.00 733.00 L 285.00 735.00 L 284.00 736.00 L 284.00 738.00 L 283.00 739.00 L 281.00 747.00 L 279.00 750.00 L 279.00 752.00 L 278.00 753.00 L 278.00 755.00 L 277.00 756.00 L 277.00 758.00 L 276.00 759.00 L 275.00 763.00 L 284.00 763.00 L 288.00 755.00 L 300.00 755.00 L 302.00 757.00 L 303.00 759.00 L 303.00 762.00 L 304.00 763.00 L 314.00 763.00 L 313.00 759.00 L 312.00 758.00 L 312.00 756.00 L 311.00 755.00 L 311.00 753.00 L 310.00 752.00 L 310.00 750.00 L 308.00 747.00 L 308.00 745.00 L 307.00 744.00 L 306.00 739.00 L 304.00 736.00 L 304.00 734.00 L 303.00 733.00 L 303.00 731.00 L 302.00 730.00 L 302.00 728.00 L 301.00 727.00 L 300.00 723.00 Z M 723.00 723.00 L 719.00 725.00 L 714.00 730.00 L 712.00 734.00 L 712.00 737.00 L 711.00 738.00 L 711.00 748.00 L 712.00 749.00 L 712.00 752.00 L 714.00 756.00 L 721.00 762.00 L 723.00 762.00 L 724.00 763.00 L 737.00 763.00 L 744.00 759.00 L 744.00 758.00 L 748.00 753.00 L 748.00 751.00 L 749.00 750.00 L 749.00 746.00 L 750.00 745.00 L 749.00 735.00 L 746.00 729.00 L 740.00 724.00 L 738.00 724.00 L 737.00 723.00 L 733.00 723.00 L 732.00 722.00 L 727.00 722.00 L 726.00 723.00 Z M 675.00 723.00 L 671.00 725.00 L 666.00 730.00 L 664.00 734.00 L 664.00 737.00 L 663.00 738.00 L 663.00 748.00 L 664.00 749.00 L 664.00 752.00 L 666.00 756.00 L 671.00 761.00 L 673.00 762.00 L 675.00 762.00 L 676.00 763.00 L 689.00 763.00 L 696.00 759.00 L 700.00 753.00 L 700.00 751.00 L 701.00 750.00 L 701.00 746.00 L 702.00 745.00 L 701.00 735.00 L 698.00 729.00 L 692.00 724.00 L 690.00 724.00 L 689.00 723.00 L 685.00 723.00 L 684.00 722.00 Z M 424.00 724.00 L 420.00 729.00 L 420.00 734.00 L 423.00 739.00 L 423.00 741.00 L 418.00 745.00 L 417.00 747.00 L 417.00 750.00 L 416.00 751.00 L 416.00 753.00 L 417.00 754.00 L 418.00 758.00 L 421.00 761.00 L 425.00 763.00 L 434.00 763.00 L 439.00 760.00 L 441.00 760.00 L 444.00 763.00 L 453.00 763.00 L 451.00 759.00 L 447.00 755.00 L 447.00 751.00 L 449.00 749.00 L 452.00 743.00 L 443.00 743.00 L 441.00 746.00 L 439.00 746.00 L 437.00 744.00 L 437.00 742.00 L 441.00 738.00 L 442.00 734.00 L 443.00 733.00 L 443.00 729.00 L 442.00 727.00 L 439.00 724.00 L 435.00 723.00 L 434.00 722.00 L 429.00 722.00 L 428.00 723.00 Z M 244.00 723.00 L 240.00 725.00 L 235.00 730.00 L 233.00 734.00 L 233.00 736.00 L 232.00 737.00 L 232.00 749.00 L 233.00 750.00 L 234.00 755.00 L 240.00 761.00 L 244.00 763.00 L 257.00 763.00 L 258.00 762.00 L 260.00 762.00 L 262.00 761.00 L 266.00 757.00 L 267.00 753.00 L 268.00 752.00 L 268.00 749.00 L 259.00 749.00 L 258.00 752.00 L 254.00 756.00 L 247.00 756.00 L 243.00 752.00 L 242.00 750.00 L 242.00 746.00 L 241.00 745.00 L 241.00 742.00 L 242.00 741.00 L 242.00 736.00 L 243.00 734.00 L 247.00 730.00 L 254.00 730.00 L 257.00 732.00 L 258.00 735.00 L 260.00 737.00 L 267.00 737.00 L 268.00 736.00 L 267.00 734.00 L 267.00 731.00 L 266.00 729.00 L 262.00 725.00 L 258.00 723.00 L 255.00 723.00 L 254.00 722.00 L 248.00 722.00 L 247.00 723.00 Z M 390.00 506.00 L 350.00 506.00 L 348.00 508.00 L 348.00 511.00 L 353.00 513.00 L 357.00 517.00 L 359.00 521.00 L 359.00 531.00 L 356.00 544.00 L 345.00 578.00 L 345.00 581.00 L 342.00 588.00 L 338.00 587.00 L 320.00 526.00 L 320.00 519.00 L 322.00 515.00 L 327.00 511.00 L 327.00 508.00 L 325.00 506.00 L 267.00 506.00 L 265.00 508.00 L 266.00 511.00 L 275.00 520.00 L 280.00 531.00 L 280.00 534.00 L 317.00 643.00 L 315.00 651.00 L 308.00 658.00 L 298.00 663.00 L 291.00 665.00 L 286.00 670.00 L 287.00 678.00 L 298.00 692.00 L 303.00 696.00 L 308.00 696.00 L 315.00 692.00 L 321.00 686.00 L 331.00 670.00 L 339.00 650.00 L 377.00 535.00 L 385.00 518.00 L 392.00 511.00 L 392.00 508.00 Z M 740.00 500.00 L 739.00 501.00 L 734.00 502.00 L 728.00 505.00 L 726.00 507.00 L 719.00 510.00 L 712.00 515.00 L 707.00 517.00 L 705.00 519.00 L 697.00 523.00 L 687.00 532.00 L 685.00 536.00 L 685.00 539.00 L 684.00 540.00 L 684.00 608.00 L 685.00 609.00 L 686.00 615.00 L 688.00 617.00 L 688.00 618.00 L 697.00 627.00 L 701.00 629.00 L 704.00 632.00 L 726.00 643.00 L 728.00 643.00 L 729.00 644.00 L 731.00 644.00 L 735.00 646.00 L 743.00 647.00 L 744.00 646.00 L 748.00 646.00 L 754.00 643.00 L 756.00 643.00 L 770.00 636.00 L 772.00 634.00 L 775.00 633.00 L 777.00 631.00 L 784.00 627.00 L 787.00 624.00 L 788.00 624.00 L 796.00 616.00 L 799.00 610.00 L 800.00 604.00 L 801.00 603.00 L 801.00 551.00 L 800.00 550.00 L 800.00 543.00 L 799.00 542.00 L 799.00 539.00 L 793.00 528.00 L 786.00 521.00 L 785.00 521.00 L 780.00 517.00 L 773.00 514.00 L 771.00 512.00 L 761.00 507.00 L 759.00 507.00 L 752.00 503.00 Z M 535.00 519.00 L 535.00 521.00 L 546.00 531.00 L 548.00 543.00 L 547.00 624.00 L 545.00 628.00 L 534.00 638.00 L 534.00 641.00 L 536.00 643.00 L 598.00 643.00 L 600.00 641.00 L 599.00 637.00 L 589.00 629.00 L 586.00 620.00 L 586.00 535.00 L 590.00 530.00 L 596.00 527.00 L 606.00 527.00 L 611.00 529.00 L 620.00 537.00 L 622.00 542.00 L 623.00 621.00 L 620.00 629.00 L 609.00 639.00 L 609.00 641.00 L 611.00 643.00 L 658.00 643.00 L 659.00 644.00 L 674.00 643.00 L 676.00 641.00 L 676.00 637.00 L 669.00 632.00 L 664.00 627.00 L 662.00 623.00 L 661.00 530.00 L 659.00 523.00 L 651.00 514.00 L 630.00 503.00 L 619.00 502.00 L 597.00 512.00 L 589.00 518.00 L 587.00 518.00 L 579.00 501.00 L 574.00 500.00 L 555.00 510.00 L 538.00 516.00 Z M 503.00 509.00 L 487.00 502.00 L 478.00 502.00 L 459.00 512.00 L 451.00 518.00 L 447.00 519.00 L 440.00 503.00 L 437.00 500.00 L 434.00 500.00 L 419.00 508.00 L 417.00 508.00 L 412.00 511.00 L 400.00 515.00 L 395.00 519.00 L 395.00 522.00 L 404.00 529.00 L 407.00 536.00 L 407.00 671.00 L 405.00 675.00 L 396.00 683.00 L 395.00 685.00 L 395.00 689.00 L 398.00 691.00 L 406.00 691.00 L 407.00 690.00 L 457.00 690.00 L 459.00 687.00 L 458.00 684.00 L 448.00 675.00 L 446.00 671.00 L 446.00 640.00 L 449.00 639.00 L 463.00 646.00 L 471.00 646.00 L 501.00 629.00 L 510.00 623.00 L 518.00 615.00 L 522.00 604.00 L 522.00 537.00 L 521.00 536.00 L 520.00 529.00 L 515.00 520.00 L 510.00 514.00 Z M 912.00 504.00 L 909.00 503.00 L 904.00 508.00 L 896.00 508.00 L 891.00 505.00 L 889.00 505.00 L 876.00 499.00 L 871.00 498.00 L 861.00 501.00 L 845.00 509.00 L 831.00 518.00 L 822.00 526.00 L 818.00 536.00 L 818.00 555.00 L 822.00 565.00 L 833.00 575.00 L 861.00 589.00 L 863.00 589.00 L 874.00 594.00 L 878.00 598.00 L 881.00 605.00 L 881.00 613.00 L 879.00 618.00 L 875.00 621.00 L 869.00 621.00 L 854.00 616.00 L 842.00 610.00 L 831.00 600.00 L 827.00 600.00 L 824.00 602.00 L 819.00 619.00 L 811.00 638.00 L 811.00 641.00 L 813.00 643.00 L 818.00 643.00 L 823.00 639.00 L 829.00 638.00 L 853.00 646.00 L 865.00 646.00 L 874.00 642.00 L 876.00 640.00 L 883.00 637.00 L 893.00 630.00 L 896.00 629.00 L 903.00 624.00 L 911.00 616.00 L 915.00 607.00 L 915.00 591.00 L 914.00 590.00 L 914.00 587.00 L 909.00 578.00 L 903.00 572.00 L 897.00 568.00 L 883.00 561.00 L 879.00 560.00 L 877.00 558.00 L 858.00 548.00 L 852.00 542.00 L 850.00 535.00 L 850.00 528.00 L 853.00 523.00 L 855.00 522.00 L 860.00 522.00 L 885.00 533.00 L 894.00 541.00 L 898.00 540.00 L 900.00 537.00 L 903.00 528.00 L 911.00 512.00 L 911.00 510.00 L 913.00 507.00 Z M 95.00 460.00 L 94.00 464.00 L 101.00 468.00 L 109.00 476.00 L 112.00 482.00 L 113.00 531.00 L 112.00 621.00 L 110.00 626.00 L 96.00 638.00 L 96.00 641.00 L 98.00 643.00 L 173.00 642.00 L 173.00 638.00 L 159.00 626.00 L 157.00 621.00 L 156.00 564.00 L 158.00 562.00 L 211.00 562.00 L 212.00 620.00 L 209.00 627.00 L 196.00 638.00 L 196.00 641.00 L 199.00 643.00 L 269.00 643.00 L 271.00 638.00 L 262.00 631.00 L 255.00 622.00 L 255.00 482.00 L 260.00 472.00 L 270.00 465.00 L 271.00 461.00 L 268.00 459.00 L 197.00 460.00 L 196.00 464.00 L 207.00 472.00 L 212.00 484.00 L 212.00 538.00 L 210.00 540.00 L 158.00 540.00 L 156.00 538.00 L 157.00 482.00 L 160.00 475.00 L 167.00 468.00 L 173.00 465.00 L 174.00 461.00 L 171.00 459.00 Z M 338.00 237.00 L 339.00 254.00 L 348.00 289.00 L 337.00 324.00 L 338.00 345.00 L 344.00 356.00 L 355.00 367.00 L 377.00 380.00 L 375.00 385.00 L 354.00 394.00 L 346.00 403.00 L 344.00 408.00 L 345.00 417.00 L 353.00 423.00 L 361.00 425.00 L 381.00 424.00 L 383.00 429.00 L 393.00 437.00 L 412.00 438.00 L 436.00 428.00 L 461.00 424.00 L 490.00 416.00 L 490.00 427.00 L 495.00 431.00 L 507.00 436.00 L 543.00 444.00 L 593.00 446.00 L 630.00 440.00 L 654.00 430.00 L 664.00 423.00 L 677.00 410.00 L 685.00 397.00 L 690.00 380.00 L 690.00 363.00 L 683.00 337.00 L 676.00 322.00 L 658.00 296.00 L 642.00 280.00 L 629.00 270.00 L 613.00 261.00 L 597.00 255.00 L 578.00 251.00 L 549.00 251.00 L 515.00 259.00 L 500.00 265.00 L 473.00 280.00 L 470.00 280.00 L 469.00 275.00 L 472.00 256.00 L 472.00 231.00 L 469.00 225.00 L 463.00 225.00 L 451.00 233.00 L 436.00 248.00 L 427.00 260.00 L 422.00 263.00 L 388.00 264.00 L 367.00 246.00 L 356.00 239.00 L 343.00 234.00 Z M 513.00 26.00 L 503.00 40.00 L 495.00 58.00 L 495.00 74.00 L 482.00 76.00 L 474.00 82.00 L 474.00 86.00 L 485.00 91.00 L 497.00 105.00 L 504.00 124.00 L 506.00 138.00 L 504.00 145.00 L 501.00 144.00 L 489.00 125.00 L 479.00 115.00 L 472.00 110.00 L 461.00 106.00 L 446.00 106.00 L 432.00 112.00 L 425.00 119.00 L 420.00 129.00 L 420.00 143.00 L 423.00 151.00 L 429.00 158.00 L 438.00 162.00 L 447.00 162.00 L 452.00 160.00 L 457.00 154.00 L 457.00 151.00 L 452.00 151.00 L 447.00 147.00 L 447.00 140.00 L 451.00 135.00 L 456.00 133.00 L 462.00 133.00 L 474.00 137.00 L 491.00 152.00 L 500.00 168.00 L 500.00 172.00 L 496.00 174.00 L 494.00 177.00 L 495.00 188.00 L 498.00 191.00 L 504.00 191.00 L 508.00 198.00 L 514.00 203.00 L 520.00 197.00 L 523.00 191.00 L 531.00 190.00 L 533.00 186.00 L 533.00 178.00 L 528.00 172.00 L 528.00 168.00 L 535.00 154.00 L 546.00 142.00 L 560.00 134.00 L 564.00 133.00 L 575.00 134.00 L 580.00 139.00 L 581.00 146.00 L 578.00 150.00 L 570.00 152.00 L 576.00 160.00 L 587.00 163.00 L 596.00 160.00 L 603.00 153.00 L 608.00 141.00 L 608.00 132.00 L 604.00 121.00 L 597.00 113.00 L 591.00 109.00 L 582.00 106.00 L 565.00 106.00 L 557.00 109.00 L 547.00 116.00 L 537.00 127.00 L 525.00 146.00 L 522.00 145.00 L 524.00 125.00 L 531.00 105.00 L 543.00 91.00 L 554.00 86.00 L 554.00 83.00 L 551.00 79.00 L 546.00 76.00 L 532.00 74.00 L 533.00 62.00 L 531.00 53.00 L 525.00 41.00 L 517.00 29.00 Z"/>
</svg>